<svg width="27" height="22" viewBox="0 0 27 22" fill="none" xmlns="http://www.w3.org/2000/svg">
<rect width="27" height="22" fill="white"/>
<path d="M5.3112 21.2737L8.49714 4.39108L10.8083 4.78214L7.62239 21.6648L5.3112 21.2737Z" fill="#59E6CE"/>
<path d="M10.6686 4.75849C11.8399 4.95668 12.0769 8.89301 11.1968 13.5563C10.3168 18.2196 8.65391 21.8393 7.48262 21.6412C6.31134 21.443 8.14306 18.1414 9.02308 13.4781C9.9031 8.81479 9.49729 4.5603 10.6686 4.75849Z" fill="#59E6CE"/>
<ellipse cx="8.59032" cy="2.34405" rx="8.59032" ry="2.34405" transform="matrix(0.185438 -0.982656 0.985985 0.166834 3 20.8827)" fill="#9A85E1"/>
<path opacity="0.56" d="M10.9572 14.6474L9.00887 14.3177" stroke="#1A5D59" stroke-opacity="0.76" stroke-width="0.5"/>
<path opacity="0.56" d="M10.8144 15.2685L8.85583 14.9371" stroke="#1A5D59" stroke-opacity="0.76" stroke-width="0.5"/>
<path opacity="0.56" d="M10.653 15.8864L8.69444 15.555" stroke="#1A5D59" stroke-opacity="0.76" stroke-width="0.5"/>
<path opacity="0.56" d="M10.4792 16.5023L8.53306 16.173" stroke="#1A5D59" stroke-opacity="0.76" stroke-width="0.5"/>
<path opacity="0.56" d="M10.2931 17.116L8.34068 16.7856" stroke="#1A5D59" stroke-opacity="0.76" stroke-width="0.5"/>
<path opacity="0.56" d="M10.1007 17.7287L8.14211 17.3973" stroke="#1A5D59" stroke-opacity="0.76" stroke-width="0.5"/>
<path opacity="0.56" d="M9.85872 18.333L7.91874 18.0048" stroke="#1A5D59" stroke-opacity="0.76" stroke-width="0.5"/>
<path opacity="0.56" d="M9.62295 18.9384L9.17341 18.8623L7.6706 18.608" stroke="#1A5D59" stroke-opacity="0.76" stroke-width="0.5"/>
<path opacity="0.56" d="M9.34884 19.5372L7.38486 19.2049" stroke="#1A5D59" stroke-opacity="0.76" stroke-width="0.5"/>
<path opacity="0.56" d="M9.03138 20.1288L7.09061 19.8004" stroke="#1A5D59" stroke-opacity="0.76" stroke-width="0.5"/>
<path opacity="0.56" d="M8.65459 20.7103L6.74096 20.3865" stroke="#1A5D59" stroke-opacity="0.76" stroke-width="0.5"/>
<path opacity="0.56" d="M8.14882 21.2699L6.27043 20.9521" stroke="#1A5D59" stroke-opacity="0.76" stroke-width="0.5"/>
<line opacity="0.56" y1="-0.25" x2="2.00919" y2="-0.25" transform="matrix(-0.985985 -0.166834 0.185438 -0.982656 11.1374 13.8713)" stroke="#1A5D59" stroke-opacity="0.76" stroke-width="0.5"/>
<line opacity="0.56" y1="-0.25" x2="2.00919" y2="-0.25" transform="matrix(-0.985985 -0.166834 0.185438 -0.982656 11.2554 13.246)" stroke="#1A5D59" stroke-opacity="0.76" stroke-width="0.5"/>
<path opacity="0.56" d="M11.3439 12.7771L9.36287 12.4419" stroke="#1A5D59" stroke-opacity="0.76" stroke-width="0.5"/>
<path opacity="0.56" d="M11.4284 12.1461L9.45342 11.8119" stroke="#1A5D59" stroke-opacity="0.76" stroke-width="0.5"/>
<path opacity="0.56" d="M11.6436 10.0855L9.68122 9.75342" stroke="#1A5D59" stroke-opacity="0.76" stroke-width="0.5"/>
<path opacity="0.56" d="M11.6744 9.44543L9.72183 9.11505" stroke="#1A5D59" stroke-opacity="0.76" stroke-width="0.5"/>
<path opacity="0.56" d="M11.6952 8.8037L9.73923 8.47274" stroke="#1A5D59" stroke-opacity="0.76" stroke-width="0.5"/>
<path opacity="0.56" d="M11.6958 8.15854L9.73341 7.82649" stroke="#1A5D59" stroke-opacity="0.76" stroke-width="0.5"/>
<path opacity="0.56" d="M11.657 7.50674L9.70439 7.17635" stroke="#1A5D59" stroke-opacity="0.76" stroke-width="0.5"/>
<path opacity="0.56" d="M11.2523 5.5025L9.34903 5.18047" stroke="#1A5D59" stroke-opacity="0.76" stroke-width="0.5"/>
<path opacity="0.56" d="M11.4763 6.18567L9.53541 5.85726" stroke="#1A5D59" stroke-opacity="0.76" stroke-width="0.5"/>
<path opacity="0.56" d="M11.5998 6.85181L9.64698 6.52138" stroke="#1A5D59" stroke-opacity="0.76" stroke-width="0.5"/>
<path opacity="0.56" d="M11.5051 11.5138L9.53663 11.1808" stroke="#1A5D59" stroke-opacity="0.76" stroke-width="0.5"/>
<path opacity="0.56" d="M11.5927 10.7221L9.6277 10.3896" stroke="#1A5D59" stroke-opacity="0.76" stroke-width="0.5"/>
<path d="M19.6803 21.6557L17.6894 4.59645L20.0154 4.30228L22.0063 21.3615L19.6803 21.6557Z" fill="#59E6CE"/>
<path d="M19.8747 4.32008C21.0535 4.171 22.4543 7.86531 23.0043 12.5774C23.5542 17.2895 23.0444 21.2303 21.8656 21.3793C20.6869 21.5284 21.4529 17.843 20.903 13.1309C20.3531 8.41881 18.696 4.46915 19.8747 4.32008Z" fill="#59E6CE"/>
<ellipse cx="8.58752" cy="2.34451" rx="8.58752" ry="2.34451" transform="matrix(-0.115918 -0.993259 0.992098 -0.125469 17.3543 21.9498)" fill="#9A85E1"/>
<path opacity="0.56" d="M23.1007 13.6896L21.1399 13.9376" stroke="#1A5D59" stroke-opacity="0.76" stroke-width="0.5"/>
<path opacity="0.56" d="M23.1495 14.3246L21.1784 14.5739" stroke="#1A5D59" stroke-opacity="0.76" stroke-width="0.5"/>
<path opacity="0.56" d="M23.1795 14.962L21.2084 15.2112" stroke="#1A5D59" stroke-opacity="0.76" stroke-width="0.5"/>
<path opacity="0.56" d="M23.1971 15.6009L21.2385 15.8486" stroke="#1A5D59" stroke-opacity="0.76" stroke-width="0.5"/>
<path opacity="0.56" d="M23.2022 16.2414L21.2374 16.4899" stroke="#1A5D59" stroke-opacity="0.76" stroke-width="0.5"/>
<path opacity="0.56" d="M23.2011 16.8827L21.23 17.132" stroke="#1A5D59" stroke-opacity="0.76" stroke-width="0.5"/>
<path opacity="0.56" d="M23.1501 17.5303L21.1977 17.7772" stroke="#1A5D59" stroke-opacity="0.76" stroke-width="0.5"/>
<path opacity="0.56" d="M23.1053 18.1771L22.6529 18.2343L21.1405 18.4256" stroke="#1A5D59" stroke-opacity="0.76" stroke-width="0.5"/>
<path opacity="0.56" d="M23.0219 18.8288L21.0454 19.0788" stroke="#1A5D59" stroke-opacity="0.76" stroke-width="0.5"/>
<path opacity="0.56" d="M22.8949 19.486L20.9418 19.733" stroke="#1A5D59" stroke-opacity="0.76" stroke-width="0.5"/>
<path opacity="0.56" d="M22.7082 20.1508L20.7824 20.3943" stroke="#1A5D59" stroke-opacity="0.76" stroke-width="0.5"/>
<path opacity="0.56" d="M22.3917 20.8319L20.5013 21.071" stroke="#1A5D59" stroke-opacity="0.76" stroke-width="0.5"/>
<line opacity="0.56" y1="-0.25" x2="2.00958" y2="-0.25" transform="matrix(-0.992098 0.125469 -0.115918 -0.993259 23.0414 12.8957)" stroke="#1A5D59" stroke-opacity="0.76" stroke-width="0.5"/>
<line opacity="0.56" y1="-0.25" x2="2.00958" y2="-0.25" transform="matrix(-0.992098 0.125469 -0.115918 -0.993259 22.9677 12.2639)" stroke="#1A5D59" stroke-opacity="0.76" stroke-width="0.5"/>
<path opacity="0.56" d="M22.9124 11.79L20.9187 12.0421" stroke="#1A5D59" stroke-opacity="0.76" stroke-width="0.5"/>
<path opacity="0.56" d="M22.8049 11.1624L20.8173 11.4138" stroke="#1A5D59" stroke-opacity="0.76" stroke-width="0.5"/>
<path opacity="0.56" d="M22.3959 9.13042L20.421 9.38018" stroke="#1A5D59" stroke-opacity="0.76" stroke-width="0.5"/>
<path opacity="0.56" d="M22.2344 8.50969L20.2694 8.75821" stroke="#1A5D59" stroke-opacity="0.76" stroke-width="0.5"/>
<path opacity="0.56" d="M22.0628 7.89024L20.0944 8.13919" stroke="#1A5D59" stroke-opacity="0.76" stroke-width="0.5"/>
<path opacity="0.56" d="M21.871 7.27336L19.896 7.52313" stroke="#1A5D59" stroke-opacity="0.76" stroke-width="0.5"/>
<path opacity="0.56" d="M21.6395 6.66148L19.6743 6.91001" stroke="#1A5D59" stroke-opacity="0.76" stroke-width="0.5"/>
<path opacity="0.56" d="M20.6546 4.86259L18.7392 5.10483" stroke="#1A5D59" stroke-opacity="0.76" stroke-width="0.5"/>
<path opacity="0.56" d="M21.0726 5.45088L19.1193 5.69792" stroke="#1A5D59" stroke-opacity="0.76" stroke-width="0.5"/>
<path opacity="0.56" d="M21.3894 6.05197L19.4241 6.30052" stroke="#1A5D59" stroke-opacity="0.76" stroke-width="0.5"/>
<path opacity="0.56" d="M22.6896 10.5359L20.7086 10.7864" stroke="#1A5D59" stroke-opacity="0.76" stroke-width="0.5"/>
<path opacity="0.56" d="M22.5372 9.75371L20.5596 10.0038" stroke="#1A5D59" stroke-opacity="0.76" stroke-width="0.5"/>
<path d="M0 3.5H27V7H0V3.5Z" fill="#59E6CE"/>
<path d="M27 6.78833C27 8.56209 20.9617 10 13.5038 10C6.04584 10 0 8.56209 0 6.78833C0 5.01458 5.59703 6.78834 13.0549 6.78834C20.5129 6.78834 27 5.01458 27 6.78833Z" fill="#59E6CE"/>
<ellipse cx="13.5" cy="3.5" rx="13.5" ry="3.5" fill="#9A85E1"/>
<path opacity="0.56" d="M11.75 9.95044V6.99998" stroke="#1A5D59" stroke-opacity="0.76" stroke-width="0.5"/>
<path opacity="0.56" d="M10.75 9.91291V6.94692" stroke="#1A5D59" stroke-opacity="0.76" stroke-width="0.5"/>
<path opacity="0.56" d="M9.75 9.8472V6.88121" stroke="#1A5D59" stroke-opacity="0.76" stroke-width="0.5"/>
<path opacity="0.56" d="M8.75 9.76273V6.81551" stroke="#1A5D59" stroke-opacity="0.76" stroke-width="0.5"/>
<path opacity="0.56" d="M7.75 9.65948V6.70287" stroke="#1A5D59" stroke-opacity="0.76" stroke-width="0.5"/>
<path opacity="0.56" d="M6.75 9.54684V6.58086" stroke="#1A5D59" stroke-opacity="0.76" stroke-width="0.5"/>
<path opacity="0.56" d="M5.75 9.35913V6.42129" stroke="#1A5D59" stroke-opacity="0.76" stroke-width="0.5"/>
<path opacity="0.56" d="M4.75 9.18079V8.50002V6.22421" stroke="#1A5D59" stroke-opacity="0.76" stroke-width="0.5"/>
<path opacity="0.56" d="M3.75 8.94437V5.97018" stroke="#1A5D59" stroke-opacity="0.76" stroke-width="0.5"/>
<path opacity="0.56" d="M2.75 8.6423V5.70326" stroke="#1A5D59" stroke-opacity="0.76" stroke-width="0.5"/>
<path opacity="0.56" d="M1.75 8.2504L1.75 5.35247" stroke="#1A5D59" stroke-opacity="0.76" stroke-width="0.5"/>
<path opacity="0.56" d="M0.75 7.66318L0.75 4.81861" stroke="#1A5D59" stroke-opacity="0.76" stroke-width="0.5"/>
<line opacity="0.56" x1="12.75" y1="10" x2="12.75" y2="7" stroke="#1A5D59" stroke-opacity="0.76" stroke-width="0.5"/>
<line opacity="0.56" x1="13.75" y1="10" x2="13.75" y2="7" stroke="#1A5D59" stroke-opacity="0.76" stroke-width="0.5"/>
<path opacity="0.56" d="M14.75 10V7" stroke="#1A5D59" stroke-opacity="0.76" stroke-width="0.5"/>
<path opacity="0.56" d="M15.75 9.94922V6.95842" stroke="#1A5D59" stroke-opacity="0.76" stroke-width="0.5"/>
<path opacity="0.56" d="M19 9.69443V6.72265" stroke="#1A5D59" stroke-opacity="0.76" stroke-width="0.5"/>
<path opacity="0.56" d="M20 9.5624V6.60546" stroke="#1A5D59" stroke-opacity="0.76" stroke-width="0.5"/>
<path opacity="0.56" d="M21 9.41512V6.45312" stroke="#1A5D59" stroke-opacity="0.76" stroke-width="0.5"/>
<path opacity="0.56" d="M22 9.23736V6.26561" stroke="#1A5D59" stroke-opacity="0.76" stroke-width="0.5"/>
<path opacity="0.56" d="M23 9V6.04297" stroke="#1A5D59" stroke-opacity="0.76" stroke-width="0.5"/>
<path opacity="0.56" d="M26 7.85093V4.96875" stroke="#1A5D59" stroke-opacity="0.76" stroke-width="0.5"/>
<path opacity="0.56" d="M25 8.36894V5.42968" stroke="#1A5D59" stroke-opacity="0.76" stroke-width="0.5"/>
<path opacity="0.56" d="M24 8.73459V5.77734" stroke="#1A5D59" stroke-opacity="0.76" stroke-width="0.5"/>
<path opacity="0.56" d="M16.75 9.88672V6.90575" stroke="#1A5D59" stroke-opacity="0.76" stroke-width="0.5"/>
<path opacity="0.56" d="M18 9.79601V6.82031" stroke="#1A5D59" stroke-opacity="0.76" stroke-width="0.5"/>
<path d="M0 3.5H27V7H0V3.5Z" fill="#59E6CE"/>
<path d="M27 6.78833C27 8.56209 20.9617 10 13.5038 10C6.04584 10 0 8.56209 0 6.78833C0 5.01458 5.59703 6.78834 13.0549 6.78834C20.5129 6.78834 27 5.01458 27 6.78833Z" fill="#59E6CE"/>
<ellipse cx="13.5" cy="3.5" rx="13.5" ry="3.5" fill="#9A85E1"/>
<path opacity="0.56" d="M11.75 9.95044V6.99998" stroke="#1A5D59" stroke-opacity="0.76" stroke-width="0.5"/>
<path opacity="0.56" d="M10.75 9.91291V6.94692" stroke="#1A5D59" stroke-opacity="0.76" stroke-width="0.5"/>
<path opacity="0.56" d="M9.75 9.8472V6.88121" stroke="#1A5D59" stroke-opacity="0.76" stroke-width="0.5"/>
<path opacity="0.56" d="M8.75 9.76273V6.81551" stroke="#1A5D59" stroke-opacity="0.76" stroke-width="0.5"/>
<path opacity="0.56" d="M7.75 9.65948V6.70287" stroke="#1A5D59" stroke-opacity="0.76" stroke-width="0.5"/>
<path opacity="0.56" d="M6.75 9.54684V6.58086" stroke="#1A5D59" stroke-opacity="0.76" stroke-width="0.5"/>
<path opacity="0.56" d="M5.75 9.35913V6.42129" stroke="#1A5D59" stroke-opacity="0.76" stroke-width="0.5"/>
<path opacity="0.56" d="M4.75 9.18079V8.50002V6.22421" stroke="#1A5D59" stroke-opacity="0.76" stroke-width="0.5"/>
<path opacity="0.56" d="M3.75 8.94437V5.97018" stroke="#1A5D59" stroke-opacity="0.76" stroke-width="0.5"/>
<path opacity="0.56" d="M2.75 8.6423V5.70326" stroke="#1A5D59" stroke-opacity="0.76" stroke-width="0.5"/>
<path opacity="0.56" d="M1.75 8.2504L1.75 5.35247" stroke="#1A5D59" stroke-opacity="0.76" stroke-width="0.5"/>
<path opacity="0.56" d="M0.75 7.66318L0.75 4.81861" stroke="#1A5D59" stroke-opacity="0.76" stroke-width="0.5"/>
<line opacity="0.56" x1="12.75" y1="10" x2="12.75" y2="7" stroke="#1A5D59" stroke-opacity="0.76" stroke-width="0.5"/>
<line opacity="0.56" x1="13.75" y1="10" x2="13.75" y2="7" stroke="#1A5D59" stroke-opacity="0.76" stroke-width="0.5"/>
<path opacity="0.56" d="M14.75 10V7" stroke="#1A5D59" stroke-opacity="0.76" stroke-width="0.5"/>
<path opacity="0.56" d="M15.75 9.94922V6.95842" stroke="#1A5D59" stroke-opacity="0.76" stroke-width="0.5"/>
<path opacity="0.56" d="M19 9.69443V6.72265" stroke="#1A5D59" stroke-opacity="0.76" stroke-width="0.5"/>
<path opacity="0.56" d="M20 9.5624V6.60546" stroke="#1A5D59" stroke-opacity="0.76" stroke-width="0.5"/>
<path opacity="0.56" d="M21 9.41512V6.45312" stroke="#1A5D59" stroke-opacity="0.76" stroke-width="0.5"/>
<path opacity="0.56" d="M22 9.23736V6.26561" stroke="#1A5D59" stroke-opacity="0.76" stroke-width="0.5"/>
<path opacity="0.56" d="M23 9V6.04297" stroke="#1A5D59" stroke-opacity="0.76" stroke-width="0.5"/>
<path opacity="0.56" d="M26 7.85093V4.96875" stroke="#1A5D59" stroke-opacity="0.76" stroke-width="0.5"/>
<path opacity="0.56" d="M25 8.36894V5.42968" stroke="#1A5D59" stroke-opacity="0.76" stroke-width="0.5"/>
<path opacity="0.56" d="M24 8.73459V5.77734" stroke="#1A5D59" stroke-opacity="0.76" stroke-width="0.5"/>
<path opacity="0.56" d="M16.75 9.88672V6.90575" stroke="#1A5D59" stroke-opacity="0.76" stroke-width="0.5"/>
<path opacity="0.56" d="M18 9.79601V6.82031" stroke="#1A5D59" stroke-opacity="0.76" stroke-width="0.5"/>
</svg>
